#!OML:ASF H:\Martial Arts Walks\Project 1\Capture day 1\Session 1\male.ASF
:FULLY-SPECIFIED
:DEGREES
1846
root -1.62855 13.4122 -39.161 14.4729 -29.6238 -16.3979
lowerback 10.3994 0.713022 5.37269
upperback -1.34385 2.02377 6.03838
thorax -7.33274 0.880402 3.05102
lowerneck -1.84139 7.27363 2.11892
upperneck 2.93171 9.61491 0.592827
head 1.28015 4.831 0.000915909
rclavicle 6.54871e-014 -3.3197e-014
rhumerus -72.7212 20.4243 -87.6852
rradius 106.568
rwrist -46.2889
rhand 5.26896 -15.8929
rfingers 7.12502
rthumb 30.6265 -43.3649
lclavicle 6.54871e-014 -3.3197e-014
lhumerus 3.22291 -5.88361 71.6131
lradius 30.7213
lwrist -34.8319
lhand -24.9707 25.8604
lfingers 7.12502
lthumb 1.53988 -304.165
rfemur 11.4647 -7.06001 10.3241
rtibia 36.8461
rfoot -24.8067 -29.4904
rtoes -27.9431
lfemur -73.7993 33.5062 -5.44763
ltibia 82.2612
lfoot -9.08014 -1.99936
ltoes -7.81282
1847
root -1.61887 13.4191 -39.1729 14.2741 -29.7345 -16.01
lowerback 10.5367 0.765283 4.99135
upperback -1.31811 2.05229 5.9644
thorax -7.39302 0.908992 3.17977
lowerneck -1.81343 7.2676 2.12273
upperneck 2.72524 9.61065 0.550551
head 1.21234 4.82707 -0.0188456
rclavicle -3.58434e-014 -2.23633e-014
rhumerus -71.9473 20.3289 -86.8979
rradius 105.825
rwrist -45.7871
rhand 5.03912 -16.6962
rfingers 7.12502
rthumb 30.4073 -44.2089
lclavicle -3.58434e-014 -2.23633e-014
lhumerus 3.16162 -6.04805 71.6668
lradius 30.9479
lwrist -34.1715
lhand -24.9062 25.9601
lfingers 7.12502
lthumb 1.60214 -304.066
rfemur 11.1346 -6.92933 9.95464
rtibia 37.3993
rfoot -24.7077 -29.5138
rtoes -27.8423
lfemur -73.6419 33.2364 -5.72608
ltibia 82.102
lfoot -8.93544 -1.7472
ltoes -8.13006
1848
root -1.6092 13.4269 -39.187 14.0565 -29.8559 -15.5902
lowerback 10.6734 0.820665 4.58456
upperback -1.28509 2.07932 5.88275
thorax -7.44594 0.938024 3.31496
lowerneck -1.77754 7.26372 2.12386
upperneck 2.49587 9.60974 0.504585
head 1.13624 4.8246 -0.0400655
rclavicle 8.3738e-015 7.95139e-015
rhumerus -71.1274 20.2265 -86.0874
rradius 105.027
rwrist -45.0737
rhand 4.70813 -17.4814
rfingers 7.12502
rthumb 30.0915 -45.0521
lclavicle 8.3738e-015 7.95139e-015
lhumerus 3.0819 -6.24629 71.7084
lradius 31.2091
lwrist -33.44
lhand -24.8327 26.0425
lfingers 7.12502
lthumb 1.67316 -303.984
rfemur 10.7708 -6.75996 9.56385
rtibia 38.0125
rfoot -24.5709 -29.5335
rtoes -27.8022
lfemur -73.4603 32.953 -6.02398
ltibia 81.914
lfoot -8.78118 -1.47884
ltoes -8.42372
1849
root -1.59982 13.4357 -39.2029 13.8228 -30.0016 -15.1566
lowerback 10.8062 0.883553 4.16476
upperback -1.24072 2.11189 5.79726
thorax -7.48531 0.970425 3.45253
lowerneck -1.72695 7.2601 2.11777
upperneck 2.24286 9.60984 0.45772
head 1.05016 4.82245 -0.0615299
rclavicle -2.81529e-014 1.54058e-014
rhumerus -70.2512 20.1267 -85.2628
rradius 104.154
rwrist -44.1517
rhand 4.3392 -18.2058
rfingers 7.12502
rthumb 29.7395 -45.8399
lclavicle -2.81529e-014 1.54058e-014
lhumerus 2.98156 -6.46807 71.7413
lradius 31.5038
lwrist -32.6606
lhand -24.7428 26.1141
lfingers 7.12502
lthumb 1.75998 -303.913
rfemur 10.3811 -6.53562 9.16273
rtibia 38.6756
rfoot -24.3942 -29.5379
rtoes -27.8366
lfemur -73.2446 32.6798 -6.32241
ltibia 81.7021
lfoot -8.61831 -1.20247
ltoes -8.6899
1850
root -1.59073 13.4456 -39.2208 13.5689 -30.1589 -14.7207
lowerback 10.9461 0.950404 3.74368
upperback -1.18557 2.14812 5.71361
thorax -7.51794 1.00471 3.59226
lowerneck -1.65897 7.25634 2.10293
upperneck 1.97098 9.61043 0.410833
head 0.955125 4.82038 -0.0827309
rclavicle 2.75814e-014 -2.78299e-014
rhumerus -69.3417 20.0481 -84.4365
rradius 103.228
rwrist -43.0937
rhand 4.01036 -18.8193
rfingers 7.12502
rthumb 29.4256 -46.5091
lclavicle 2.75814e-014 -2.78299e-014
lhumerus 2.85988 -6.69909 71.7758
lradius 31.8253
lwrist -31.8597
lhand -24.6416 26.178
lfingers 7.12502
lthumb 1.85768 -303.85
rfemur 9.98144 -6.2622 8.76484
rtibia 39.3795
rfoot -24.1942 -29.5134
rtoes -27.8864
lfemur -72.9927 32.4112 -6.60755
ltibia 81.4678
lfoot -8.44281 -0.924498
ltoes -8.94566
1851
root -1.58209 13.4564 -39.2406 13.3019 -30.3284 -14.298
lowerback 11.0851 1.02296 3.337
upperback -1.11707 2.1917 5.63277
thorax -7.53626 1.04195 3.72567
lowerneck -1.57567 7.25048 2.08504
upperneck 1.68421 9.60854 0.365235
head 0.853041 4.81703 -0.104006
rclavicle 2.80783e-014 -9.34288e-015
rhumerus -68.388 19.997 -83.624
rradius 102.24
rwrist -42.0029
rhand 3.70276 -19.4295
rfingers 7.12502
rthumb 29.1319 -47.1705
lclavicle 2.80783e-014 -9.34288e-015
lhumerus 2.72338 -6.93174 71.8147
lradius 32.1676
lwrist -31.061
lhand -24.5318 26.2406
lfingers 7.12502
lthumb 1.96373 -303.789
rfemur 9.5714 -5.93629 8.38403
rtibia 40.1227
rfoot -23.9665 -29.4601
rtoes -27.9727
lfemur -72.706 32.1537 -6.86312
ltibia 81.2133
lfoot -8.25113 -0.652933
ltoes -9.16659
1852
root -1.57395 13.4682 -39.2632 13.0315 -30.4912 -13.8944
lowerback 11.2278 1.09771 2.95211
upperback -1.04224 2.24004 5.55649
thorax -7.55009 1.08048 3.85093
lowerneck -1.49184 7.2409 2.07253
upperneck 1.3996 9.60131 0.321755
head 0.752125 4.81112 -0.125421
rclavicle 7.1314e-015 -1.70955e-014
rhumerus -67.4135 19.9819 -82.8371
rradius 101.223
rwrist -40.9972
rhand 3.41846 -20.1058
rfingers 7.12502
rthumb 28.8604 -47.8935
lclavicle 7.1314e-015 -1.70955e-014
lhumerus 2.57408 -7.15991 71.8636
lradius 32.5247
lwrist -30.2872
lhand -24.4211 26.3196
lfingers 7.12502
lthumb 2.07062 -303.711
rfemur 9.14485 -5.57907 8.03199
rtibia 40.9064
rfoot -23.7102 -29.3726
rtoes -28.1177
lfemur -72.4031 31.8936 -7.0865
ltibia 80.9373
lfoot -8.03633 -0.395423
ltoes -9.37415
1853
root -1.56636 13.4806 -39.2892 12.7683 -30.6368 -13.5239
lowerback 11.3775 1.17154 2.60092
upperback -0.967301 2.29158 5.48893
thorax -7.56775 1.11909 3.96603
lowerneck -1.4 7.22621 2.06563
upperneck 1.12038 9.58706 0.28198
head 0.652025 4.80182 -0.146774
rclavicle 3.86885e-014 1.21259e-014
rhumerus -66.4296 20.0109 -82.0865
rradius 100.191
rwrist -40.163
rhand 3.0572 -20.9773
rfingers 7.12502
rthumb 28.5152 -48.8234
lclavicle 3.86885e-014 1.21259e-014
lhumerus 2.40375 -7.37424 71.9275
lradius 32.8944
lwrist -29.5591
lhand -24.3144 26.4143
lfingers 7.12502
lthumb 2.17372 -303.617
rfemur 8.69532 -5.19263 7.72865
rtibia 41.7374
rfoot -23.4478 -29.2456
rtoes -28.2535
lfemur -72.0967 31.6263 -7.26582
ltibia 80.6387
lfoot -7.79157 -0.15707
ltoes -9.56957
